<svg role="img" viewBox="0 0 24 24" xmlns="http://www.w3.org/2000/svg">
  <title>PostgreSQL</title>
  <path d="M23.5594 14.7228a.5269.5269 0 0 0-.0563-.1191c-.139-.2632-.4768-.3418-.7884-.1944a.5372.5372 0 0 0-.2363.2462c-.0869.1816-.1472.3535-.1699.5176-.0247.1934-.0135.3889.0353.5695.0248.0927.0629.1832.1154.2693.0525.0874.1195.1633.1977.2253.0782.0619.1677.1086.2677.1392a.9317.9317 0 0 0 .335.0128c.0365 0 .0729-.0035.1082-.0095a.9382.9382 0 0 0 .4119-.1948c.0763-.0619.1446-.1392.2025-.2281a1.474 1.474 0 0 0 .2534-.5807c.0106-.0473.0188-.096.0235-.1446.0024-.0244.0059-.0819.0059-.0819l.0387-.7922.0387-.7922a.8014.8014 0 0 0-.0128-.3807.8644.8644 0 0 0-.1557-.3385.7604.7604 0 0 0-.2704-.2445 1.0453 1.0453 0 0 0-.3666-.1152c-.0575-.0059-.1162-.0095-.1758-.0095a1.0155 1.0155 0 0 0-.3807.0682 1.0672 1.0672 0 0 0-.3195.2015.9737.9737 0 0 0-.2279.3172c-.0188.0448-.0365.0914-.0529.1392-.0118.0365-.0223.0729-.0317.1094l-.0023.0117c-.0188.0682-.0353.1375-.0494.2079a1.3534 1.3534 0 0 0-.0353.5082c.0023.0589.0082.1177.0164.1758.0082.0575.0188.1145.0317.1711.0129.0565.0282.1123.0459.1675.0176.0552.0376.1099.0599.1628.0223.0529.0458.1045.0729.1563.0271.0517.0564.1016.0881.1498.0659.0999.144.1905.2328.2728.0564.0517.116.0975.1781.1428.0188.0141.0388.0270.0576.0387l.0682.0411.0023.0011.0706.0893.0694.0893c.0023.0035.0058.0058.0093.0082l.0046.0035.0023.0012.0353.0235.0694.0464.0046.0029.0223.0153.0929.0623.0929.0623.0694.0463.0217.0141.0105.0070.0906.0599.0223.0141.0023.0023.0429.0282.0694.0464.0706.0452.0694.0476.0046.0029.0222.0153.0929.0623.0929.0623.0694.0464.0217.0141.0105.0070.0906.0587.0223.0153.0023.0012.0429.0282.0694.0464.0694.0464.0046.0029.0223.0141.0929.0623.0929.0623.0694.0464.0217.0141.0105.0070.0906.0587.0223.0153.0023.0012.0429.0282.0694.0464.0694.0464.0046.0029.0223.0141.0929.0623.0929.0623.0694.0464.0217.0141.0105.0070.0906.0587.0223.0153.0023.0012.0429.0282.0694.0464.0694.0464.0046.0029.0223.0141.0929.0623.0929.0623.0694.0464.0217.0141.0105.0070.0906.0587.0223.0153.0023.0012.0429.0282.0694.0464.0694.0464.0046.0029.0223.0141.0929.0623.0929.0623.0694.0464.0217.0141.0105.0070.0906.0587.0223.0153.0023.0012.0429.0282.0694.0464.0694.0464.0046.0029.0223.0141.0929.0623.0929.0623.0694.0464.0217.0141.0105.0070.0906.0587.0223.0153.0023.0012.0429.0282.0694.0464.0694.0464.0046.0029.0223.0141.0929.0623.0929.0623.0694.0464.0217.0141.0105.0070.0906.0587.0223.0153.0023.0012.0429.0282.0694.0464.0694.0464.0046.0029.0223.0141.0929.0623.0929.0623.0694.0464.0217.0141.0105.0070.0906.0587.0223.0153.0023.0012.0429.0282.0694.0464.0694.0464.0046.0029.0223.0141.0929.0623.0929.0623.0694.0464.0217.0141.0105.0070.0906.0587.0223.0153.0023.0012.0429.0282.0694.0464.0694.0464.0046.0029.0223.0141.0929.0623.0929.0623.0694.0464.0217.0141.0105.0070.0906.0587.0223.0153.0023.0012.0429.0282.0694.0464.0694.0464.0046.0029.0223.0141.0929.0623.0929.0623.0694.0464.0217.0141.0105.0070.0906.0587.0223.0153.0023.0012.0429.0282.0694.0464.0694.0464.0046.0029.0223.0141.0929.0623.0929.0623.0694.0464.0217.0141.0105.0070.0906.0587.0223.0153.0023.0012.0429.0282.0694.0464.0694.0464.0046.0029.0223.0141.0929.0623.0929.0623.0694.0464.0217.0141.0105.0070.0906.0587.0223.0153.0023.0012.0429.0282.0694.0464z"/>
</svg>
