<svg role="img" viewBox="0 0 24 24" xmlns="http://www.w3.org/2000/svg">
  <title>Redis</title>
  <path d="M10.5 2.661l.54.997-1.797.644 2.409.218.748 1.246 1.379-1.856 1.989.091-1.329-1.506 1.065-1.776-1.97.34-1.612-1.098-.42 2.005zm11.159 9.983L24 14.051l-3.847 1.498-2.895 1.11-5.577 1.982-8.347 2.972-2.804 1.059-.53-1.032 2.802-1.093 8.344-2.96 5.577-1.993 2.896-1.107 3.854-1.474z"/>
  <path d="M10.5 2.661l.54.997-1.797.644 2.409.218.748 1.246 1.379-1.856 1.989.091-1.329-1.506 1.065-1.776-1.97.34-1.612-1.098-.42 2.005zM.88 16.184c0 .97 2.083 1.755 4.65 1.755 2.567 0 4.65-.785 4.65-1.755 0-.97-2.083-1.756-4.65-1.756-2.567 0-4.65.787-4.65 1.756zm5.033-3.387l2.806-1.06 8.346-2.971 5.576-1.983 2.896-1.107 3.854-1.474-2.341-1.407-3.848 1.498-2.895 1.11-5.577 1.982-8.347 2.97-2.804 1.06z"/>
  <path d="M23.066 13.634l-2.34-1.406-3.848 1.498-2.895 1.11-5.577 1.982-8.347 2.97-2.804 1.06.53 1.033 2.803-1.093 8.344-2.96 5.577-1.993 2.896-1.107 3.854-1.474z"/>
</svg>
